<?xml version="1.0" standalone="no"?><!DOCTYPE svg PUBLIC "-//W3C//DTD SVG 1.1//EN" "http://www.w3.org/Graphics/SVG/1.1/DTD/svg11.dtd"><svg t="1687245552813" class="icon" viewBox="0 0 1024 1024" version="1.1" xmlns="http://www.w3.org/2000/svg" p-id="4039" xmlns:xlink="http://www.w3.org/1999/xlink" width="200" height="200"><path d="M512 597.333333a256 256 0 1 1 0-512 256 256 0 0 1 0 512z m0-85.333333a170.666667 170.666667 0 1 0 0-341.333333 170.666667 170.666667 0 0 0 0 341.333333z m341.333333 426.666667a42.666667 42.666667 0 0 0 42.666667-42.666667c0-146.688-174.933333-256-384-256s-384 109.312-384 256a42.666667 42.666667 0 1 0 85.333333 0c0-88.96 130.730667-170.666667 298.666667-170.666667s298.666667 81.706667 298.666667 170.666667a42.666667 42.666667 0 0 0 42.666666 42.666667z" fill="#EEEEEE" p-id="4040"></path></svg>